<mxfile host="app.diagrams.net" agent="Mozilla/5.0 (Windows NT 10.0; Win64; x64) AppleWebKit/537.36 (KHTML, like Gecko) Chrome/123.0.0.0 Safari/537.36" version="24.7.7">
  <diagram id="C5RBs43oDa-KdzZeNtuy" name="Page-1">
    <mxGraphModel dx="988" dy="542" grid="1" gridSize="10" guides="1" tooltips="1" connect="1" arrows="1" fold="1" page="1" pageScale="1" pageWidth="827" pageHeight="1169" math="0" shadow="0">
      <root>
        <mxCell id="WIyWlLk6GJQsqaUBKTNV-0" />
        <mxCell id="WIyWlLk6GJQsqaUBKTNV-1" parent="WIyWlLk6GJQsqaUBKTNV-0" />
        <mxCell id="WIyWlLk6GJQsqaUBKTNV-2" value="任意两条对边平行" style="rounded=0;html=1;jettySize=auto;orthogonalLoop=1;fontSize=11;endArrow=block;endFill=0;endSize=8;strokeWidth=1;shadow=0;labelBackgroundColor=none;edgeStyle=orthogonalEdgeStyle;entryX=0.5;entryY=0;entryDx=0;entryDy=0;" parent="WIyWlLk6GJQsqaUBKTNV-1" source="WIyWlLk6GJQsqaUBKTNV-3" target="WIyWlLk6GJQsqaUBKTNV-7" edge="1">
          <mxGeometry relative="1" as="geometry">
            <mxPoint x="320" y="170" as="targetPoint" />
          </mxGeometry>
        </mxCell>
        <mxCell id="WIyWlLk6GJQsqaUBKTNV-3" value="普通四边形" style="rounded=1;whiteSpace=wrap;html=1;fontSize=12;glass=0;strokeWidth=1;shadow=0;" parent="WIyWlLk6GJQsqaUBKTNV-1" vertex="1">
          <mxGeometry x="260" y="80" width="80" height="40" as="geometry" />
        </mxCell>
        <mxCell id="T1UZrN2t6RgM1eJqlzTA-2" style="edgeStyle=orthogonalEdgeStyle;rounded=0;orthogonalLoop=1;jettySize=auto;html=1;" edge="1" parent="WIyWlLk6GJQsqaUBKTNV-1" source="WIyWlLk6GJQsqaUBKTNV-7" target="WIyWlLk6GJQsqaUBKTNV-12">
          <mxGeometry relative="1" as="geometry" />
        </mxCell>
        <mxCell id="T1UZrN2t6RgM1eJqlzTA-3" value="剩下两条对边也平行" style="edgeLabel;html=1;align=center;verticalAlign=middle;resizable=0;points=[];" vertex="1" connectable="0" parent="T1UZrN2t6RgM1eJqlzTA-2">
          <mxGeometry x="0.2557" relative="1" as="geometry">
            <mxPoint as="offset" />
          </mxGeometry>
        </mxCell>
        <mxCell id="T1UZrN2t6RgM1eJqlzTA-8" style="edgeStyle=orthogonalEdgeStyle;rounded=0;orthogonalLoop=1;jettySize=auto;html=1;entryX=0.5;entryY=0;entryDx=0;entryDy=0;" edge="1" parent="WIyWlLk6GJQsqaUBKTNV-1" source="WIyWlLk6GJQsqaUBKTNV-7" target="T1UZrN2t6RgM1eJqlzTA-7">
          <mxGeometry relative="1" as="geometry" />
        </mxCell>
        <mxCell id="T1UZrN2t6RgM1eJqlzTA-9" value="剩下两条对边长度相等" style="edgeLabel;html=1;align=center;verticalAlign=middle;resizable=0;points=[];" vertex="1" connectable="0" parent="T1UZrN2t6RgM1eJqlzTA-8">
          <mxGeometry x="0.3149" y="1" relative="1" as="geometry">
            <mxPoint as="offset" />
          </mxGeometry>
        </mxCell>
        <mxCell id="WIyWlLk6GJQsqaUBKTNV-7" value="梯形" style="rounded=1;whiteSpace=wrap;html=1;fontSize=12;glass=0;strokeWidth=1;shadow=0;" parent="WIyWlLk6GJQsqaUBKTNV-1" vertex="1">
          <mxGeometry x="260" y="170" width="80" height="40" as="geometry" />
        </mxCell>
        <mxCell id="WIyWlLk6GJQsqaUBKTNV-12" value="平行四边形" style="rounded=1;whiteSpace=wrap;html=1;fontSize=12;glass=0;strokeWidth=1;shadow=0;" parent="WIyWlLk6GJQsqaUBKTNV-1" vertex="1">
          <mxGeometry x="170" y="250" width="70" height="40" as="geometry" />
        </mxCell>
        <mxCell id="T1UZrN2t6RgM1eJqlzTA-0" value="" style="shape=image;verticalLabelPosition=bottom;labelBackgroundColor=default;verticalAlign=top;aspect=fixed;imageAspect=0;image=data:image/png,iVBORw0KGgoAAAANSUhEUgAAANUAAACjCAYAAAAdO1tfAAAZ5klEQVR4Ae2dBbgVVdfHKQMppaUbEUEkDQRpUFJAShoBA1Ba0JcSpUNR0iClpRQpBQNUpEQRAQlFUELEAkVd3/Ob751551zvhQt38py1n4dnLvecO7P3f6//7L1XJhNtioAi4CgCyRy9m95MEVAEREmlQqAIOIyAksphQPV2ioCSSmVAEXAYASWVw4Dq7RQBJZXKgCLgMAJKKocB1dspAkoqlQFFwGEElFQOA6q3UwSUVCoDioDDCCipHAZUb6cIKKlUBhQBhxFQUjkMqN5OEVBSqQwoAg4joKRyGFC9nSKgpFIZUAQcRkBJ5TCgejtFQEmlMqAIOIxAoEg1ZMgQyZo1q9x0001y9913S7169aRz587C7ydNmiTLli2TTz75RA4dOiSnT5+Wc+fOyd9//y3//PPPv/45jJPeThFINAKBIdWZM2ekWbNmkixZsnj/XXvttXLddddJmjRpJF26dJI+fXrJkCGDZMuWTYoXLy533HGHNGjQwCDhoEGDZOLEifLmm2/Kzp075ejRo3L27Fn5888/Ew2MflERuFIEAkOqw4cPS7Vq1eIlVEJES+j3qVKlMggI6TJlymSsfjfeeKPkzJlTChYsKLfddptUrlxZmjRpIg8//LAMHjxYxo8fL3PnzpVdu3bJDz/8IL/++qv89ddfV4qr/l0MIxAYUu3Zs0duuOEGR0iVENku9vvUqVNLlixZJEeOHJI3b16DfEWLFpUSJUpIhQoVpFatWtKyZUvp3r27DB061CDh7Nmz5e2335YjR47Ib7/9ZmxFY1iWdOj/RSAwpNqyZYskT57cIhXbus2bN8vChQtl8uTJMnz4cOnVq5e0b99eGjduLNWrV5d8+fJJypQprb+5GGnc+IyXAH0oXLiw3HLLLVK2bFm56667pHbt2sZWtlOnTtK3b1957rnnjDPhvHnzZM2aNfLxxx/LL7/8YpwDVRKjD4HAkGr16tUR5KhZs2aCaP/xxx+yb98+2bFjh3z44Yeybt06Wb58uSxYsECmTJliELB3797y0EMPSYsWLaRu3bqGsLMSuUGuy7lnrly5pGTJklKuXDmpVKmS1KlTRxo1aiStW7eWHj16GEqZCRMmyPTp02XRokWydu1a2bp1q5w/fz5BPPSDYCEQGFLNmTMnQuARMrR6TjTOR7t37zYIyEqxdOlS4/zECjhy5Ejp2bOnsKq0atVK6tevL1WrVpUyZcoI2z8UJJdDGqe/yypIX1gBedGwSoMNZ8GBAwfKuHHjZNq0aQJ+K1askHfeecfQkH7xxRdOQKf3uAIEAkOqsWPHWsJ71VVXCRo8p0h1ubjw3G+++cYQUNT4CCwqfbagffr0kS5dusgDDzwg9913n9xzzz1Svnx54+yFEiRFihTWOJwmWGLux3YYEqKIwSTx4IMPSteuXY1tKP1nJZ8/f76xsrPCs8VmxYeEjFlb0hEIDKnYrplCw+rA+SMsDVU9ihZWQXML+uyzzwpjYgXEVMAZsGLFiobAc/4qUqSI5M6d2xqzOXavr5AQLSl2wYYNG0qHDh0MZYxpluCFsmrVKuMFAwG3b99ujHX//v2GgubkyZNhmSbP+hkYUrH1MgUKW9Snn37qGQhePghjNUoKVoe33npLZs6cKWPGjJH+/fsbK2Dz5s2lRo0axpkL+xvkK1CggEHA7Nmz+6ohZX7YRVx//fVGf+6//37DLogCCWUM21C21hs3bjTmb+/evYaR3kt8g/CsQJDq66+/Ns4LJqnQqh0/fjwI+PjaB7aheI1gGMeLBBKyfUOl//jjj0ubNm0MRQfbPbSQrHyYBNCcZs6c2SAgLygTV6+vrIJoRDds2OArjl4/PBCkwuDKW9mcdLR0aPi0XR4CGKuxlx07dsxQzCxZssTwLGErh2KDlYUtKG5gGMMzZsxobP3wUEmbNq1hML/mmmuM1cicCyeuKFZiqQWCVO+//36EjYoDvzb3EWAreurUKeF8hGli8eLFhkJmwIAB0q5dO8PgXapUKWMVZMt39dVXG//YAtr/XUo5A3nxmImVFghSoWGzvxF5m2rzDwFWvAsXLhi+kihhzH+sgt9++63hT7lp0yZDi4hKH4VM06ZNDbV/sWLFjFXQPp+QDjewWGmBINWMGTMiSIU7kLZwIMBqx7nv999/N/wlUcL8/PPPhg3NTixWvFhpgSAV9hP7BDz55JOxgn/UjhPVu92Xk7MaW8xYaIEgFZosk1Roq6ZOnRoL2Ef1GFm57GYS5pdzWiy0QJAK/zyTVByIca7VFn4EVq5cac0r88vcEtcW7c13UuGXh7HTJBUGTrVRRYfYEZdG2Iw5t1xxFI725jup8CzAQGgCjxFTI3SjR+xGjRplzS1zjMIi2oM/fScVXtUYH01S3XzzzdEjUToSw1EX+5Y5v6jXo92D3ndSETNkAs4Vr29t0YMA6nY85e1zTKhNNDffSUVIhR3wWNEQRbNQxR1bXIUFGbOiWWHhO6meeuqpCFL95z//iTsn+v+QIwCBCHexvzxxiYrW5jupyOtngk3asVjQDkWrMF1sXERYm/PMlcxZ0ZoiwHdS4TNmgo06nexE2qIPARxq4zrefv7559E3UBHxnVRVqlSxSEVqMLymtUUfAqjRScBjvkC5kmnKr5QJbiLsK6kIQS9durQFNDFV0W7DcHMyg35vdiF2UpHUJhrD8X0l1fr16yV//vwW0BiBtUUvApyhSNFmJ1aYcpEkdmZ8JRVZfewA466kLboRIADSPuekhCNUJJqar6QicM0OsNqookm04h8L+UgIAzHnnazEJAuNpuYrqexpyQBZbVTRJFrxjwXFhF05xbw//fTT8X85pL/1lVRx3Vc0jiqkUnSZ3Wbbb8+bj5MtYfrR0nwlFRlezW0A2X1IW6wt+hEggJH5NueeK2WMoqX5Siryg5vAol796quvogVXHcclEOjWrVvEakWRBmLroqH5RiqMvIR5mKSiEJvaqKJBpBI3BsI/7CE/VMkkrXQ0NN9IhSEwT548Fqk4vGqLLQTiKiyoYhINzTdSkUPcnpIYe4W22ELgtddei8iGi0dNNCTd9I1UI0aMsFYptoAdO3aMLYnS0cqJEyciKp8QIczLNuzNN1I99thjEaSimLW22EOAGsp29TpeNWHPo+8bqagMbyopuFKGRVvsIUCCzUyZMlmyQFTwBx98EGogfCMV9W5NUpHJlJq92mITAXuKOmQC/8AwN19IhauKPeSDpPaxkhI4zMLiVt/xpDFfsFyRhzA72fpCKpLYY+w1gaRmLhUltMUmAjjZUjHSlAfK04bZw8IXUm3btk1y5sxpgVirVq3YlCYdtYVAjx49LHmAXGGWCV9INXv2bKOKn/lmIpe6tthGgDrBlFQ1ZYJzNtmLw9h8IRVFl03wuKJe16YI2B2skYt+/fqFEhRfSPXII49EkGrYsGGhBE877SwCcYv/cc4KY159X0iFS5J9pQJMbYrAoUOHIpJupkqVyqhDHDZkfCEV2j47qTSOKmxi415/40aD16lTx72HuXRnz0mFjcquPiX8I+wWdJfmJiZvi2Y4Q4YM1kuXfBZhiwr2nFTYqEiaaa5Ud955p+zduzcmBUgH/W8EiAquV6+eJR/ICc7XYWqekwpDX5YsWSzQ0PhoUwTsCGD4NV+6XIm7C1MmW89JRbUHar+aoHXo0MGOp/6sCMixY8ekUKFClowgK5s2bQoNMp6TavTo0ZI6dWoLsD59+oQGLO2oNwhcuHDBsFGZL16uLVu2DM1q5Tmp4sZRjRkzxpuZ0qeECgFyWFx11VXWyzdMCgvPSRXXRjVr1qxQTbZ21hsEcLCuXr26RSpWq4kTJ3rz8CQ+xXNS2UM+AOqtt95K4hD0z6MVAULr7VvAW2+9VdAOBr15Sio0OHZ1OgqLLVu2BB0j7Z9PCPzwww+CY62dWGGwaXpKKmxUhEubIJFMk72zNkUgPgR4Ccc9g5MgKOj+gJ6SChuV/c3ToEGDUCzn8U24/s4bBHbt2hWRGIYEnMhRkJunpKLImz3X30MPPRRkbLRvAUDg77//FgoYmLsbri+88EIAepZwFzwlFdobQqVNgLR0TsITo5/8D4G4ISFVq1aVH3/88X9fCNhPnpLq8ccftwgFsSZNmhQwOLQ7QUTgzJkzEXnXsV8FOe+6p6TiDGWuUlwXLVoUxDnUPgUQgfbt20fITpcuXQKbdNMzUrE3prKHnVScsbQpAolBgJUpZcqUlvwULFhQDhw4kJg/9fw7npLKXugLgIid0aYIJBaBkiVLWqTi5RxUDwvPSIWNyl6PCOu4FnlLrDjp90CAwuspUqSwiEUpniB6WHhGKmwLFPYyt3/4AIYtolNF218Ezp49G5F3nZf02rVr/e1UPE/3jFTvvvuu4Glskqpz587xdEd/pQhcHIHWrVtbMoQsBbEEk2ekwtZgd+UfMmTIxdHTTxWBeBBYt25dhANBgQIFAufq5gmpqOVLYkS79mb69OnxQKa/UgQujgD+gBUqVIhYrYIWk+cZqeLWo1q5cuXF0dNPFYEEECDDMTkBzaNE5cqVE/imP7/2hFR4FZcpU8YCATC0dI4/Ex4NTz169GhEWVNCiNasWROYoXlCqnPnzklcG9Vnn30WGBC0I+FDoHnz5hEv6SApLDwhFTYquyNttmzZ5ODBg+GbSe1xYBBYtWqVpE+f3iIWpZmCEhLiCakgkF1JQa4/0lBpUwSuFAFe1AS5mucqrkHxsPCEVO+//34EqYijwpCnTRFICgLEVdkVFmgFg9A8IRVF3pInT269VdRGFYSpD38fdu/eLdipzNUKjx2cDPxurpMK73RIZCfVq6++6ve49flRgkCbNm0sUkGuTp06+T4y10mF5q9t27YRAw+S+tP3GdAOJAkBUtzZ3d8yZcokBDX62VwnFUkR41rAw1rL1c+J0mfHj8CJEyfk7rvvtl7a7IimTJkS/5c9+q3rpPrpp58ibFS47u/fv9+j4eljYgGBF1980SIVW8CyZcv6OmzXSXXy5MkIR9qMGTMKFnFtioBTCFDfzF5J5uqrr5Y9e/Y4dfvLvo/rpMJGZWpnuJYrV04gmjZFwCkEOLcTSmSXM5IM+dVcJxVpeu2DbdeunbAl1KYIOInA6tWrI+Qsc+bM8uuvvzr5iETfy3VSvf766xGD1Vx/iZ4b/eJlIHD69Ol/eVi88cYbl3EH577qOqlw07evVC+//LJzvdc7KQI2BCZPnhwha4SEUEDO6+YqqfDPIj+bnVREbmpTBNxAgJwn9iqdaJr9SC7kKqkwwtWoUSOCVJ9//rkbeOo9FQGjGkjcpJsDBgzwvKypq6TCMBc3jkq901X63UTgvffei3iJ58+f33PnbVdJdfjw4QgXEmxUEE2bIuAWAqjX4ybd9Fph4Sqp2M/az1PFixf3/K3h1uTpfYOLAIlg7HLXsGFDgWxeNVdJFXcpbtq0qeALqE0RcBOB48ePR0Sao7DA68Kr5iqp5s+fH/HGePLJJz19Y3gFoj4nWAiQxqxx48YRsvfMM8941klXSTVq1KiIgU2bNs2zgemDYhsBos3tW8DSpUsLhbm9aK6Sqlu3btbAcMkPYt5rL0DWZ3iPAGnxKLdjJ9bixYs96YhrpELLxwHRHBT72n379nkyKH2IIgACw4YNs+QPOWzRooUn/oCukQrrdpEiRaxBkUc9yHVaVQyjD4HvvvsuonwTEcJbt251faCukYpVyR7mjI3KL69h11HUBwQWgXr16lkvdlYrL5IOuUaq7du3RwwGG1UQC3QFVhq0Y44ggOHXXm2GErlu10VzjVSkijLPU1xJoMnhUZsi4CUCvMhz585tySJne0w9bjbXSDV37lxrIGSn7dGjhy9u+G6Cp/cOBwL9+/ePSJHXqFEjV+2lrpFq9OjREaQimyhGOW2KgNcIfPHFFxE5LLJmzSpbtmxxrRuukYqVydz+kZqX/GzaFAG/ELj33nsteUQuhw8f7lpXXCEVoc34+ZmkQgvI20KbIuAXArNmzYrI51+iRAk5deqUK91xhVSUNLFXZKCMjhYkcGX+9KaJRABnhMKFC1sv+jRp0rimsHCFVCSOT5s2rTUAUvGq5i+Rs69fcw0BHLrN3RPXunXruvIsV0hF6VF754sVKyYU09amCPiJwEcffSTZs2e3ZJPigwcOHHC8S66QiiLZdlLVrFlTqP6hTRHwEwFe7B06dLBkE1PPoEGDHO+SK6R65ZVXrI5DLjIqqTrd8bnTG14EAWpKEyS7fPlymT59uowdO9YgUN68eSNk85ZbbnF8F+UKqey5/tD8jRw5Ukl1EQHQjy4PAXxI0SZja8JUM2fOHBk/frz06dNHyICM+vz222+PUEzYd072n8m7vmjRosvrwCW+7Qqpunfvbr0NyMPmdeKNS4xZPw44At9//71RGWbnzp2yceNG4TgxdepUwxm2a9eugkcE5ZmonGgnyJX+DAmdbK6Q6oEHHrAGixZQc/05OWXhvhcJVlFv49RK3ggcrzds2CDz5s0TvHAoLNCkSRPBjmSv53ulhInv76gQgsIiT548RnnTBg0aOAqq46Qi5OOee+6xSEXIh8ZROTpngb8ZBSgwrBLPREYttmnLli0TshzhaUP+CAQa+2V8Qp+U33HcSJcundxwww2SI0cOyZcvn9x6661Sq1YtoYD70KFDhTM/mkCSvbqhQHOcVLx57MWNUVu60fHAS1aUdvD8+fNGCA8rDp4zrDrMOaSZOHGi9OzZ0yDNzTffbNgq7bWek0IW+99ypMB4y4qDfBEMy4u8devW8vTTTws1pdk60jc/7KOOk4o9sB0AbFTawoEAGlrUziT1N8nDisP2nVI1L730kvTu3VvYLjGvrAaope3zndSfuR/bPmKgIE+GDBkMhUOVKlUMdThZkdgqbtu2zTfSXGo2HScVyTXswFavXv1SfdDPPUYA8rB7gDxs1diiUTiCqhm9evUySMNKw0qAcCPoxCGx6ji18nA//rHisEWrWrWqPPzwwzJu3DhZsWKF7Nq1y8h+RDwUROcf/Q6DacZxUlHE2E6qjh07eiwy+jgTAQSQ5KVHjhwxlAGsNCgCCBglNTJbJ4SaFQHysEIg6Pb5S8rPENAkTaVKleTRRx81zlVLliwxckVQphafUPrIygjJIU/Ym+OkGjx4sDUpTBAHQ23uIfDHH38IOeuXLl1q2GogDSrn8uXLS65cuYTYIbZQJnmSQpK4f2uSBoMquSCeeOIJmTBhgmFCIcHKoUOHjNUGRRW2JVIvRwNpLjWbjpOKt5EJfvr06WXmzJmX6oN+fhEEIA1pjLHVEOjZr18/admypfDmJ+8HWyeIw/nGDRU02jQUAZhJMK4+//zzBmnQ6LFtNImDJk1Tev//RDpOKmwMJqlQp+/YseMiIqMf8eYmVAZ3Ggyc+KJ16tTJ8KDGwFm0aFFD/cxWjZeUia1TVwyoEBTSYLQnq/Ds2bNl/fr18sknn8iXX35pbB+1+HniZdVRUnHotduoqE2F2jWWG+cEhBPtGYFyI0aMMLZJBHFWq1ZNypYtaxAHm4pTSgA74diaUaaT5z322GOC9owSsax8mzZtMhQCeGqzGmpzBgFHSYXwYAk3J5WCW9FuoyI/N6sxXgEku8EHjS0aPmj169c3gjVx2mSlMXFx6opWDtU2AaGoudGeYadBWbRgwQKjT59++qlmBnaGK4m+i6OkIle63UqOhinsDSUAhkTe6igDeMuTThjPgGbNmgkmgzJlyrhynmH1QrXNNhD/NM5SGFdZ7fAKYLUhdg1fOW3BQcBRUmGUs7+Fqfcb9PbNN98YPmgYEzlHLFy40DiMk9aK1aZ27doReePs40vKz6iwc+bMaSgBICV2Gtx3UPSgMZ0xY4Zhr0EhwBZSW3gQcJRUbH3sgkZRYz8bwshbHDvNnj17DNsIqykCyzaJ/tWpU0dKlSrluGcASgW0cvi4oaVDxY19CCUEZgfKCrHSYKuJBTWzn3Lg9bMdJVXfvn0jSOVGVKUdIPzPUOVyrmGbhoqX1QaFAAdygiPZNpGh1El1s91pE2UMam22aWjRWrVqJaxykyZNMrwUILUf/md2nPRnbxFwlFQ4NJorFXYTVoQrbawyGAuxfUAcVLqonjlDkLaXcwUHczRonD0QdPPZTlxNp00MpygZChUqZJFm4MCBxkrDlhHSYEvSpgiYCDhKKrLTmAKNIKJGTqiZvmcIJORh1SFUAG0VbiyECTzyyCOGIHP2cJI0cZ022apRIIyVpm3btkYwHLaajz/+WEmT0ATq7xNEwDFScS644447LFJxliBVGc0kEKsNuQMwdOI4iV8ggozqnWDGuI6bSbXb8Pe4SrHqsAWkf2zPONMQgr1582ZBUcFqSP/5FxanzQRnVD/wHQHHSIWNinOFuVJBEPzB2J7h5gJpsN6TE8B03jS/m9Qr94XE2Gs4R5ETAy0eKw0xNfidRZvTpu+Sox1IEAHHSLVmzRrJkiWLRaqkEsX+9xAR51DU29iHWOUIMYE0Bw8eNBQVeG5AHkIFVAWd4HzrBx4g4Bipjh07JgMGDDBWIjshEvMzpEGDRo1g7DRkY8I7gRpXZM1BQYFCAG9nddr0QCr0EUlCwDFS0QuIRYRmXCKhZKhYsaKR0AP/MzR3eK9jM2LbiA0JWxKqcbXZJGk+9Y8DgICjpGI82ImIHiWBIRGchNfj5rN//35DuxeAMWsXFAFXEXCcVK72Vm+uCIQAASVVCCZJuxguBJRU4Zov7W0IEFBShWCStIvhQkBJFa750t6GAAElVQgmSbsYLgSUVOGaL+1tCBBQUgVgks7sniu9nlgiSUq9suUZyZ4s2X8N771kw7kADMzJLpzcIGOe3yxhGNb/AUWSCeoU0iA8AAAAAElFTkSuQmCC;" vertex="1" parent="WIyWlLk6GJQsqaUBKTNV-1">
          <mxGeometry x="360" y="72.5" width="71.87" height="55" as="geometry" />
        </mxCell>
        <mxCell id="T1UZrN2t6RgM1eJqlzTA-1" value="" style="shape=image;verticalLabelPosition=bottom;labelBackgroundColor=default;verticalAlign=top;aspect=fixed;imageAspect=0;image=data:image/png,iVBORw0KGgoAAAANSUhEUgAAAMIAAACICAYAAAC1IjQ7AAAQKklEQVR4Ae2dB5AURRSGD0RQEY4oIKISVECCBUVWRBEJgkgOggooSTKCIChBwpWJpFAqSqZUlCwoQUtKySpBiZJzEEwkBcb671yZN7O3O7PTs9vd817VFsPtTM/r/71vQm+HJIONFWAFjCTWgBVgBQwGgZOAFYACfEfgPGAFGATOAVYgTQG+I3AmsAJ8R+AcYAXSFOA7AmcCK8B3BM4BViBNAb4jcCawAnxH4BxgBdIU4DsCZwIrwHcEzgFWIE0B3+4IEyZMMPiTeA327NnDue5AAV9AOHHihJGUlMQfCTRo06aNgzTgXXwBYdWqVQyBBBCELkZLlizhTI+igC8gvP/++wyCRCBUqFAhShrw176A0LdvXwJCiRIlDNU++fLlS61DcnKyUN+vu+661HILFy4stFyrvqG7QejfsWPHcrZHUMAXEOrXr09AeO655yK4IOdXb775Zmodnn76aaEO5siRI7Xc77//Xmi55sKuXLliFClShMQAQJ86dcq8G2+bFPAFhGLFipEgvPHGG6ZTqrF58uRJY9OmTcbBgweFOhwPEODwjBkzSAxwZ+jSpYvQuuhUmHAQLl26ZAvA4sWLddLMU13iBQKcrFOnji0W3377rSf/dT1YOAibN2+2ib97925d9XNdr3iCsG7dOlssatas6drnIBwgHIRPPvmEiJ8lS5Yg6Oi4jvEEAU717NmTxAOPSB9++KFjf4Oyo3AQhg8fToQvU6aMklp+/fXXRo8ePYyZM2cK9T/eIPz2229Gnjx5SExuu+024+LFi0LrpXphwkF48skniejNmzdXUiOVW42sgr/zzjskJrgrvPjii9bdAv1/4SCUL1+eiP7yyy8rKbBOICAA1apVI3EBDFu2bFEyNn44LRyEm2++mQg+a9YsP/z2vUzdQFi+fDmJC0Bo1KiR7zqqcgKhIOzfv98m9saNG1XRgvi5cOHC1EQZP348+bvX/8T7HcHsb7t27WzxmTNnjnmXwG4LBeHLL7+0Cf3XX38FVtxwFU8kCPhxMHPmzCRGJUuWDOdm4P4mFIRx48YRke+4447ACRqtwokEAb6NHj2axAiPSCNHjozmtvbfCwWha9euROTatWtrL6DbCiYaBPhbunRpEqdMmTIZeKwNsgkFAb9a4goT+qAdXlW7cOGC8euvvxqiH+1kAGHu3Ln/xygUK9GdC1WLu1AQChYsSASeOHGianr8769urUb/V+y/jSZNmpBYAQi84wXVhIFw9uxZm7ArV65UVlfdQfjpp59s8apcubKy8fLquDAQ1q5daxP2yJEjXv1L2PEhEJo1a2agu4WoT7Zs2VJ1+uGHHxJWt9CJX3rpJVvMMOFCEE0YCNOmTSOi4llYZQuBEBpRFnqWFvWvnwNznOr+zz//GGjZM9cpV65cxpkzZ5wWoc1+wkAYOHAgEVT12yxGc/3444/GPffcQ+plThov2zLcEZDFU6dOtdWvW7du2iS404oIA6Fx48ZE0KC3QjgNgAz71apVi8QOgK9Zs0YG1+LmgzAQ8Aul+QqJH27Y1FBg9erVJHaI46OPPqqG84K8FAaC9VkabdVs6iiAxyHzhQzbeO8LigkBYfv27TYRf/75Z6U1/Oqrr3wZmCOrKPjxMGfOnCSOeJHGC3UQTAgI8+fPJwJmyJDBwJQiKluo1ShI7zroaWu9K6CJNQgmBISUlBQiYPHixZXXLoggIGho7bPCoPrd3UkyCgHB2s/9iSeecHJuqfcJKgjhutI3bdpU6liJcE4ICFWqVCFXER3Gw2JgDpqERQ/MERE0v8t46qmnSDxxh9C98UMICPg10nw7nTJlit+x4vJ9VGDfvn2GtRUQXbd1Ns8gHD16lEAAINAuzaa2AiNGjLDFFe+CuppnENAZzXw3wHYQ+6romCDWH0kxWduhQ4d0rKrhGYRJkyYREAoUKKCFUH4NzFFJHAzst17k0DCio3kGoVevXkSshx56SAudgtpqZA0eWgCtMKxYscK6m/L/9wyCdcblzp07Ky8KKsAgpIUx3KTOmCxMN/MMAlZ+MV8xdFmZhUG4lupoDjfHGNsqD8O9VrNrW55AOHfunE2gpUuXXitd4S0G4VrwMGEwJg42w5A3b14DEwzrYp5AwOASszjYRhu0DoaBOZgbVPSKOapq88EHH9hijSnndTFPIMyePZuIc9NNN+miC9cjjALW6Xpw4Vu/fn2YPdX7kycQhgwZQkAoV66cegqwx44VwLJT1ieAunXrOj5e5h09gdCyZUsiTKtWrWSuK/smQAEsSGiFQfRiKgLcdF2EJxDuu+8+IsqwYcNcOyDrARiY071799TVKWX1MRF+YbXR7Nmzk7hjKdurV68mwh1h5/QEwo033kgE+eijj4Q5luiCuNUo/QiMGTOGxB13CFUXhAnVMmYQ9uzZYxMD6xLrYgxC5EhWqFDBFv8dO3ZEPkjib2MGYcmSJTYh0D9HF2MQIkcyXPxbtGgR+SCJv40ZhLfeeouAULRoUYmr6d61IA/McaqWdeFIPCItWLDA6eFS7RczCJ06dSIg1KtXT6qKsTP+K/DLL7+QHAAIaEBR0WIG4cEHHyQi9OnTR8X6s88eFbCuqw0YXn/9dY+lxv/wmEHInz8/AeHdd9+Nv/d8RikUsM4Pix4GGLmoksUEwunTpwkEuAp88803KtU7qq948Uc9//zzz6j7Bn0HNJsjB8yfZ599VilZYgLhu+++I5WGAMePH1eq4tGc5VajaArR7xs0aGDLCQzjVcViAsHaEzFPnjyq1NexnwyCY6lSdwzXE7l69eruCkng3jGB0L9/f0K/jiOWGAT3WfnCCy+QvMCTgirvjjGB8Pjjj5MKt2/f3r1qkh/BILgPEAZqYfIG87tCvnz5lHjPigkEayvBa6+95l41yY8IDczRdfoSv+R/7733CAiAQoWmddcgYJpwM/HYVvXXRL+SIejl1qhRw5YjMqwZFykurkEItyzpzp07I52DvwuYAmhKt14s69evL7UKrkH49NNPSSUzZcokdQXZucQo0LFjR5InAANDe2U11yCMHDmSVLBUqVKy1s2TXxiYg+WUZsyY4amcoB587NgxI2vWrCRX7rrrLmnlcA2CdcrwJk2aSFs5L45xq5EX9dKODWlofkwaOnSo94J9KME1CBUrViSUDxo0yAe3El9kKIhBWjrKD9UxoYMZBGzv3r3bj1N5KtM1CMnJyaRi06dP9+SArAczCGIis2jRIpIvAKF169ZiChdYiisQ0KZupVuXeW2smmJgDh77JkyYYP2K/+9SAetsJ8ihxYsXuyzF391dgYBZkK0g/P777/56yKUrrwCa1615U758eanq5QqEt99+m1SoUKFCUlWGnZFXAetkcAADw31lMVcgYJ4fM9mPPPKILPVgPxRQoFixYiR/smXLZpw4cUIKz12BUKtWLVIRtLPraufPn+eBOYKDO2vWLJI/uKhi7LsM5gqE22+/nVRE5xdJbjXyJz0xyYP5qQLbq1at8udkLkp1DMIff/xhq8Dy5ctdnEqtXRkEf+K1ceNGWx7JsNyYYxA2bNhgq4DOawcwCP6AgFJ79+5ty6XJkyf7d0IHJTsGAX1uzLc0TASrszEI/kUXTxe33HILyadbb73VwHtZoswxCIMHDyaOY+5LnQ0Dc7Zu3artusKJjp11WWJcZPv165cwtxyD0LRpUwJC27ZtE+Y0n1gPBR544AGSU4AhURNJOwahdOnSxOkRI0boEQ2uRcIUQFd38+M2ths2bJgQfxyDcP311xOnMUCHjRXwqkCHDh1IXgGGjz/+2Guxro93BMKuXbtszuL5WWdbuXJl6sAcXXvXyhK7w4cPGzfccAPJr+LFi8fdPUcgoCem9RaGQfw6G7caxS+6mAXFml+vvvpq/BwwDMMRCJjd2Ozo3XffHVcnE3EyBiG+qpctW5bkWMaMGY29e/fGzQlHIGBCVzMImOBLd2MQ4hvh+fPnkxxDvrVp0yZuTjgC4f777ydOJrK9N17KYGQVmox17k8VLy2dnqdZs2YkzwDD0qVLnR7uaT9HIOTNm5c4iEmA2VgB0Qps376d5BlAwBj5eFhUENBf3PxYhG2swM7GCvihgLUHA/Jt3LhxfpyKlBkVBHSRtYKABTTYWAE/FLhy5YpRuHBhknM5cuQw0OXFT4sKgnVSV8xuHARDBzCIjw5ibPFVAL/dWC++Xbt29dWJqCD07duXOKXS4g9elONWIy/qeT+2du3aJO8ABlZq8suigvDYY48RhzCnZRCMQUhslNetW0fyDiD4OUY+KgjWAddIkCAYg5D4KPfo0cMGw5QpU3xxLCIIFy9etDny+eef++KIbIWGQMCiKFhTWvQH/bfYIitw9uxZI3fu3CQHMYXQpUuXIh8Yw7cRQdi8eTNxArcnrLYeBEPLGBbIy5Ili00D64tcLP9H2WzRFbDOpQWtBwwYEP1Al3tEBAHdYc1BRi/BoBmmucQyqaI+mMsHmjIIzjOpatWqJA+hn+jezxFBGD58OHEAHaPYvCmANnEEUvallLzVUuzRmC3FfEHGduPGjYWeJCIImLXY7ECLFi2EnjyIhTEIsUX9mWeeIbmIvBQ5OCwiCJio1QzCK6+8ElstFDwKA3Oef/55Q/TAHAYhtmQ4cOCAYR0lee+998ZWWJijIoJgXfpH5jWwwtTN059CrUaiFwphEGIPy+jRo8mFGRfpUaNGxV6g6ch0Qdi/f7/tpEF6rmUQTFki0SbW7DM/peAugbuFV0sXhC+++IKcECfHyupBMQZBzkh/9tlntrwUcddOFwR0fTWTd+edd8qpjE9ehQbmoB1bpPGjkXc10WJkzk1sL1u2zFPB6YKA3n7mk9WpU8fTifjgNAUYBO+ZEG7R+ypVqngqOF0QHn74YQJCz549PZ2ID05TgEEQkwkDBw4k+YmLtpe7d7ogFCxYkJwIc1WyeVeAQfCuIUr4+++/Det6Hbly5TLOnDkT0wnCgoDOTubHImxjer4gGQbmnDx5UvjAHAZBXBahJ6o1T7G8WSwWFoS1a9faTnD06NFYylf2GG41UiN01uXMAAby162FBWHq1KkEhJw5c7otV/n9GQQ1Qrh69WqSqwABo9vcWlgQrC8iXt/I3Tolw/4MggxRcOYDusJYH5GmTZvm7OD/9goLQqNGjUjB6PAUNGMQ1Ik4xo6E3r1CQOB3r8uXLzuuRFgQSpYsSUBISUlxXKAuO0JctFdjtmaRFgpYkLqriNQvvbLGjx9PchZADBo0KL3dbX+3gXD16lUDE7CGyMK/mPqQP2I0CPWgxEB01lSMpiEdK1WqRPIWubtt2zZb0of7gw2EcNPumaHg7SSb2KyJvJpgPlUnZgNh3rx5HOgkeQPL0LmPDXI6mtlACNfnm8V3Lz5rJo9mZcqUicaBfaEQdLbjD2ugWw5Ea/Cx3RGiosM7sAIaKsAgaBhUrpJ7BRgE95rxERoqwCBoGFSuknsFGAT3mvERGirAIGgYVK6SewUYBPea8REaKsAgaBhUrpJ7BRgE95rxERoq8C/eN1OXvFgjhgAAAABJRU5ErkJggg==;" vertex="1" parent="WIyWlLk6GJQsqaUBKTNV-1">
          <mxGeometry x="390" y="160" width="66.33" height="46.5" as="geometry" />
        </mxCell>
        <mxCell id="T1UZrN2t6RgM1eJqlzTA-22" style="edgeStyle=orthogonalEdgeStyle;rounded=0;orthogonalLoop=1;jettySize=auto;html=1;entryX=1;entryY=0.5;entryDx=0;entryDy=0;" edge="1" parent="WIyWlLk6GJQsqaUBKTNV-1" source="T1UZrN2t6RgM1eJqlzTA-7" target="T1UZrN2t6RgM1eJqlzTA-20">
          <mxGeometry relative="1" as="geometry" />
        </mxCell>
        <mxCell id="T1UZrN2t6RgM1eJqlzTA-23" value="上下底边长度相等" style="edgeLabel;html=1;align=center;verticalAlign=middle;resizable=0;points=[];" vertex="1" connectable="0" parent="T1UZrN2t6RgM1eJqlzTA-22">
          <mxGeometry x="-0.3275" y="2" relative="1" as="geometry">
            <mxPoint as="offset" />
          </mxGeometry>
        </mxCell>
        <mxCell id="T1UZrN2t6RgM1eJqlzTA-7" value="等腰梯形" style="rounded=1;whiteSpace=wrap;html=1;fontSize=12;glass=0;strokeWidth=1;shadow=0;" vertex="1" parent="WIyWlLk6GJQsqaUBKTNV-1">
          <mxGeometry x="350" y="250" width="70" height="40" as="geometry" />
        </mxCell>
        <mxCell id="T1UZrN2t6RgM1eJqlzTA-10" value="" style="shape=image;verticalLabelPosition=bottom;labelBackgroundColor=default;verticalAlign=top;aspect=fixed;imageAspect=0;image=data:image/png,iVBORw0KGgoAAAANSUhEUgAAAKAAAABlCAYAAADK6ugqAAAQyElEQVR4Ae2dCVQURxrHZxDxSrw2boga0USjz0SjxjVGTBZ13Zg18RkTcrtGjWZzPF2fm+iaEF0UBQS5FBR9HsEYY0hUAvGIIijigYoSRBBEQVAEVOSU87+pHqd6gGGm5ujp7qH7Pd403XX+69fVXdVff6WCsikKiKiASsS8lawVBaAAqEAgqgIKgKLKr2SuAKgwIKoCCoCiyq9krgCoMCCqAgqAosqvZK4AqDAgqgIKgKLKb53Ms0uB0hrrpGXrVGQJYNjx63AKvAPnRfvh5ubWqv8GzAmEOqweDwcUoKLW1vhYnp/sACyvBdoF3+NEJ8Kreg2BSqVqtX/qf26mWnwafcNyImycguwAnLM7hwqu9s5jAu8/KhWiZQTpKJUK+SoVOrOUedAEqodjSAVu37cxQRZmJysAibhEZNLzkb8Z4UfZqj91KjBiBFtYxlBxcXEc/KdPn2aMwQdzcXHBrFmz+ANN9w4eBFQq4NSppmf0/t952Tmqifv31/SGkepBWQE4dXs2FbqTbw7qGxhlHT0amDyZMTBbMEEBTEnRABgVxVQYz22/Ul0c1lXjejlTNEkEkg2AeeUAEVfb+33x3XF2AV1cgI8+Yg/PEDIzMxPz5s1DTk4OQ+jGQYz2gLduaQDcuLFxRAP/OXscpdqM33zFQEhpnZINgK4bs6jA3Xwus6t4+zagVgOhoexxBA5pFECSf+/ewJw5zCUJ+zkW6tBajUahtUi/yxxV1ICyADCFMPTguY/8BkSZ8NwVFqbpTfLzRRVaN3MmAD/+GOjeHair041qcP8Jj0NUpxFh8ugFZQHg4HX8s9/jq5INNkKzk4MGAUOHNjts6YHc3Fz4+vri5s2bJifFBOAvv2gunB07mNP/8dAJqNfepxAmFTJHFS2g5AFMuKnT+4XW4sejF9jF2rVL04jh4exxGEMKOgghZSA9X79+QP/+QH09Y6mAocv2UwD7Bkt/RCx5AHsGX6eCDvY+ydwQXKOR3u+pp0xqQNYMBAeQFER7AUVEsBYLcUkpUAeWUs1isquZ44oRUNIAbk8tp0KSW0v8hSx2jb76StP77d3LHseEkFevXsXXX3+NvLw8E2JpgjLdgrWpjhwJ9OgB5OZqjxj9dV3BT8v0CDS9fEYzsGIAyQJI5vi6Bd6kAI72PcZe7chIDXwzZrDHsWFIkwC8fBno1g0YPBiorGQqZVpmNtqsLqDahZ0uZoonRiDJArgy/hYVsE3QPVzKvcWmT3Q00L498MorJo0g2RK3TiiTACRZJiQATk7AuHFAaSlTISb7xlD9iKFCHeukPVPq1gskSQCr6oAOQXeogK8ExbPVmEy5kDm/iROBsjK2OGaGIrdgDw8P4W/B2vLt3w906qQZ0TOMvAuLb8PJm39v7nGA/RauzdIWv5IE8POoXApfW/9C3CkzcuvJzAQ++EBz2124UJBBR9PG0A5CzLXEmT17dtMkjf+fmgqQtzo9ewLr1wM1ho0Ap4fsozq2D7wNcmFLbZMcgPeqgT/7XIfTg/msD9a30PtVVAAxMRrwHByAYcOAI0dspq8WwDl/vK1YunSpyX97zR0clZcDS5YA7doBjz8O+PgAF/RPTdXX16OjVwYHobPPDcyNzLSZPqwZSQ7At7/PxrbR01HSoQuinv47Gr75Bn+0LkB+P/0UePNNYMwYwNFR0+ORaRYyTdFg24ccMhHt4+Nj1kQ0a+MYDEfe7MycqQGRWM48+qjmuZcMvBYv1mi2dCniJk7D2T4j0KBW45klp1EisVkZSQFYUAm0WVuFfiuuYN5bQUh+4W/A8OGAs7MGODIaHDAAGDtW0wucO2ewjVrFSXInIPOFb7wBPPus5h0yGYSR50UyiT1uHELGzsDUf+2G47oaTNuaJilZJAXguE2Z9Jmlq3eGpISSc2F8f4ilujqEVIJc6FLZJANgRgl4a44/vnHw32PCWw8R1MzKysL8+fPNMscSobh4zPM0hfCvYaliFEFvnpIBcFgob27Ve6WJBgd6qybsQe0gxByLaGFLpj/1Lb8m8hf4uhqQL+mksEkCwDOFjQ0Oth/RP6qTgmDaMsgNQFLu/ssTaC/4bJA0ekFJAOgSfI0KM2jlCW0bS/o3Pz8foaGhuEWsl2WyxSReaGSudb6I3cpGqCqKDmBkOv+RETE4OJJsgrWzUKrYcbrDvOLoxd7PT/wRsagAEoMDYq2htXZ+3hSDAzuGRMiqnbmUDYegMqp5VNodIbMzmraoAAYkFlEhHAJLcPGa6dbFRmsoUID09HTu00ryTlhu20u+/LRMDz9xTfdFA7CmHugUVEwBfDmwhVduEm1dOQ5CtFLmFBSjzZrbVPuQo6Z/2adNy9Jf0QD8Yh9v6UwMDopKhLVesVSopvHlDCCpy2tBfC/4sF8u+zfWTYWw8H9RACT+XZyCSugV+H5LBgcWVk7I6AUFBYiIiEBxsXSNPQ3Vv7K6Fk6rb9A2+O/eS4aCC3ZOFACn/3CFVrzD6jzJGksKprpEEp6xgR8Rt/O7CfJYZOvN5gByBgfB/Lce//7WBFN7W6tj5/mRWYiOPldpZzAz4rzNa2xzACdtsQ+Dg4sXL8Ld3R3knbCct4URxyiAjgF3QB6PbLnZFEDy/lG9roZW2G+3PN566GsQuQ9CdOvUzVtjtErmY6dsOKN7SvB9mwL4l7DLFL6eXvK25bMnAP33nqLtQiapbelj0GYANvXv8u1h6Vu8GLr8yeiXmNXfvSsTL0CGKgOg56oLFELXADa/hEaSZDptMwAHBPMj34GrpG3rx6ScnQXaEf87BZC8k7eVj0GbALgvm3eYQyoXe06xdpYivwO8z1AIn/E1wQOZBZWxCYC6Bgej7MTgICUlBZMmTUJGhv1cTIcvZPODxNBanLpWYgFabFEFB3B9Ev/OkTzg/p4tHT99bBLpD2VPgxDdGg5ffZL2gi4rz+qeEmRfUACJOwjiFkJrbjVxTZwglRAjUXsFMDW3COTDJW2b/XRGWEMFQQH0+I239XP0u4Vbd+6JwYogeZLRb2xsLEoZfbUIUgiBEnULTKQA/snrd4Fy0SQrGIDEDQRxB6G9kt4Ns5/eT9AWkUDihWXVcAziFwPy339RsFIJBuDsSH7apb3vdcXgQLAmFCbhqWEnaOfRaaVwn0kIAiCZSW+jY3AwbyvjgjLCaClIqsnJyRgzZgzS0sT/rkKICpI7mNMa3mJ94c4kIbKBIABO2ca/cuuyKl2QgoudqL0OQnR1nb2N/5iduHoTwseg1QFsuqCM708mLCijW3uJ77cGAAlwHf3y6a14+kbrt6XVAXTdwFtWOK+Qt8GBoWuAjH6TkpJQTtyl2fG2ODKZAkjc/lrbx6BVAWzq32XbIfsF0I6Za1a1rqt5o1Vmb7XNUtF/wKoADg7hjU37r0jUn6NyVHYKBBxMo72ges0dq/oYtBqA8Xl1fCHX3sehM+J85GKr1iW33yFDhiCVuM1tBdtjq/lHq+e9reeJ1moAOgfyDrGf87a/aZemjLWGQYhunX88zd+G1cEVyLxlHfdaVgFw2/m7tPcjBgfnM6XpkV1XUEv3WxuARK+n/HmbwUGe1nmzZTGA5MuqLmv4ofp4v1hL21YW8SsrKzlTrKqqKlmU1xqFTMgsauRjMC7VckMFiwH0iuXhIwYH+cXC25BZQ0wlDfMUeC7wPL3b9Vpq+Se1FgFIPmTuEFBIC+S+tnX0fuY1nX3EyiyuarRyPTHlt2SzCMDP9vDr+LbzyUUtuR+3ku3kyZPo27cvLrSwRoc9yzA+lJ+c7vaNZR8wmQ0gWVDGMZhfFvSzzdZ5KJVLw7XGQYi2bZoam6y24PtuswF0j+DnhR5aJb0VeLRiCfXbmgEkmr6xmf+Ms8My8316mwUg8e+ia7a9fFeCUO0s2XSrq6tx48YN1BhZr02yFbCwYE09nM3bYt7ktFkAuoVfogOPR+3Y4MDCNrL76HN3plIOHJdnmOVj0GQANf5dKqDeqOmCNx8QxlDR7lvPDipYXd+A9qGHKYRvBx8wuVYmAzg0JB3qbYFQ7VahQ8QIHC48bHKm9hDh+PHj6N69O861wvXq6hrqsDVnKwYdGsRxoN70wLfMyhyTfQyaBCC/oEwF1Ns88NCezlwBRh4Zicj8SDSg9UzDaAch5q4XPGvWLNldh1V1VQi5EgKXAy5cuz958ElsvrYFXQP4lxETVsWYVC+TAOwdwH9oRNabqKyrREBWAHrt68UV6PWTr4NcHa1h0wJoznrBXbp04Tzsy0mnouoiPH3oaa6dh8cOx668Xahv0LhUXXuUN0RR+xWh8F4Fc9WYAdyVyvt0JgYH5zKu0UzK68ox7tg4CmFtg429HNKS2G6nrq4OZWVlIItCm7q5uLhgJlnrVyYbgW/gbwO59v0y9Uu9pXYO4Fe7em5ZtN4w+g4yA9jdn6f8r77Nn/tq6mvwTtI7XCEnn5gM8r+y6VdATgAW3C+g8IVmh+qvEICfU/hXsurAUlzIut5iWN0TTAD6H+W9qZP1Ja4X6l9dhzwDLkhZwEE45cQU3XyUfR0F5AJgSU0J+h/sD8c9jtiZt1OnBvp3BwbrWMQvYXsWNAogt6CMPw/gtKBD+nPXOboodREH4ZacLTpH7Ws3Pj4ebdu25T5MMrVmcgFwbvJcrh1jCthgOpXH+5Qhbvh+PZFiVBqjAC6I4gcexOCgutb4IKO6vhrO+5zRNboriqvluY6GMeW0gxBz1guWA4DHio9x8L164lVjUjQ6P3JdOp0XdF5sfF7QIIDkdUvbQN7aeW5482e/Rrnr/BN+NZyrwOKLi3WO2s8u6QEdHBzstgd88eiLXPul3DPei+m2KnlR4RBaSyHcEG344zSDAL67nX/lZqp/EDId88TBJ/BIzCN0uK5b0Na8L/UeMLM8k4PvvaT3zGqmiZv4XrDzYsNWUi0C2NTkZukOwwnpK+mO6zu4isQXy2shQn11seYxqQPoleGFNnvaILsi26xqc4sRra2iveDSiN9aTKdFACeGX6QJ9PA0z1MmmQ9U71bDM92zxQLI9QSZ/yPfg9jjPODLx1/GqLhRFjXN29/x/oGcPFp2UKAXQM7gYC3vWDw8xvwFZXrv740JCRMsqowUI9vrIIS83Wgf1Z6b07VE95JqwCmEXxh7bshevcnpBXBEMG9m09fTMoc0Lx19CX3299GbuZwP2iuAuZW53GPTkotLLG6eT37mZ1Ac/ndJr7lWMwAbLSizrgZ7Esy3diU1+PDsh+gW3c3iykgtgYSEBJB3umfPmv54IuVnwLTSNA7Ajdc2Wiw5cWTUMZifRXl9VWSzNJsB2N+ff/ZTvxUEc609aDw3FVT+KsvTUSlpUE2F1KK7CqotKqj6WElv19l0LKH2ugpiSa67NQKwpKQE6pAHo5fAUqg6dVfAEbKxW0PaDm2gXp5FIXx/wTJd/hp7SCUWGv0+38IFHjjTG25ubspfCxq4urpyzonGjh2raNSCRlp+hrnPR9uQMjgv2s9ppUtgox5Q94Syb1gBslhhVFSU3SxWaLi2wp1VABROWyVlBgUUABlEUoIIp4ACoHDaKikzKKAAyCCSEkQ4BRQAhdNWSZlBAQVABpGUIMIpoAAonLZKygwKKAAyiKQEEU4BBUDhtFVSZlBAAgBW4fAXztw75xc8E2Hc5XcVEj1f4MI7fxKDuwyVFD1IVSJWTByP8a+tRUummXczY+DnPg2bDLhazN4xG/9Y8B3SRKr03WMxOFdmXTX/D7lwi9mDz6PbAAAAAElFTkSuQmCC;" vertex="1" parent="WIyWlLk6GJQsqaUBKTNV-1">
          <mxGeometry x="420" y="240" width="79.21" height="50" as="geometry" />
        </mxCell>
        <mxCell id="T1UZrN2t6RgM1eJqlzTA-11" style="edgeStyle=orthogonalEdgeStyle;rounded=0;orthogonalLoop=1;jettySize=auto;html=1;" edge="1" parent="WIyWlLk6GJQsqaUBKTNV-1" target="T1UZrN2t6RgM1eJqlzTA-13">
          <mxGeometry relative="1" as="geometry">
            <mxPoint x="260" y="190" as="sourcePoint" />
          </mxGeometry>
        </mxCell>
        <mxCell id="T1UZrN2t6RgM1eJqlzTA-12" value="剩下两条对边也平行" style="edgeLabel;html=1;align=center;verticalAlign=middle;resizable=0;points=[];" vertex="1" connectable="0" parent="T1UZrN2t6RgM1eJqlzTA-11">
          <mxGeometry x="0.2557" relative="1" as="geometry">
            <mxPoint as="offset" />
          </mxGeometry>
        </mxCell>
        <mxCell id="T1UZrN2t6RgM1eJqlzTA-31" style="edgeStyle=orthogonalEdgeStyle;rounded=0;orthogonalLoop=1;jettySize=auto;html=1;entryX=0.5;entryY=0;entryDx=0;entryDy=0;" edge="1" parent="WIyWlLk6GJQsqaUBKTNV-1" source="T1UZrN2t6RgM1eJqlzTA-13" target="T1UZrN2t6RgM1eJqlzTA-20">
          <mxGeometry relative="1" as="geometry" />
        </mxCell>
        <mxCell id="T1UZrN2t6RgM1eJqlzTA-13" value="平行四边形" style="rounded=1;whiteSpace=wrap;html=1;fontSize=12;glass=0;strokeWidth=1;shadow=0;" vertex="1" parent="WIyWlLk6GJQsqaUBKTNV-1">
          <mxGeometry x="170" y="250" width="70" height="40" as="geometry" />
        </mxCell>
        <mxCell id="T1UZrN2t6RgM1eJqlzTA-14" style="edgeStyle=orthogonalEdgeStyle;rounded=0;orthogonalLoop=1;jettySize=auto;html=1;" edge="1" parent="WIyWlLk6GJQsqaUBKTNV-1" target="T1UZrN2t6RgM1eJqlzTA-16">
          <mxGeometry relative="1" as="geometry">
            <mxPoint x="170" y="270" as="sourcePoint" />
          </mxGeometry>
        </mxCell>
        <mxCell id="T1UZrN2t6RgM1eJqlzTA-15" value="四条边都相等" style="edgeLabel;html=1;align=center;verticalAlign=middle;resizable=0;points=[];" vertex="1" connectable="0" parent="T1UZrN2t6RgM1eJqlzTA-14">
          <mxGeometry x="0.2557" relative="1" as="geometry">
            <mxPoint y="13" as="offset" />
          </mxGeometry>
        </mxCell>
        <mxCell id="T1UZrN2t6RgM1eJqlzTA-26" style="edgeStyle=orthogonalEdgeStyle;rounded=0;orthogonalLoop=1;jettySize=auto;html=1;exitX=0.5;exitY=1;exitDx=0;exitDy=0;entryX=0;entryY=0.5;entryDx=0;entryDy=0;" edge="1" parent="WIyWlLk6GJQsqaUBKTNV-1" source="T1UZrN2t6RgM1eJqlzTA-16" target="T1UZrN2t6RgM1eJqlzTA-25">
          <mxGeometry relative="1" as="geometry" />
        </mxCell>
        <mxCell id="T1UZrN2t6RgM1eJqlzTA-27" value="四个角都为90°" style="edgeLabel;html=1;align=center;verticalAlign=middle;resizable=0;points=[];" vertex="1" connectable="0" parent="T1UZrN2t6RgM1eJqlzTA-26">
          <mxGeometry x="-0.1859" relative="1" as="geometry">
            <mxPoint as="offset" />
          </mxGeometry>
        </mxCell>
        <mxCell id="T1UZrN2t6RgM1eJqlzTA-16" value="棱形" style="rounded=1;whiteSpace=wrap;html=1;fontSize=12;glass=0;strokeWidth=1;shadow=0;" vertex="1" parent="WIyWlLk6GJQsqaUBKTNV-1">
          <mxGeometry x="80" y="330" width="70" height="40" as="geometry" />
        </mxCell>
        <mxCell id="T1UZrN2t6RgM1eJqlzTA-4" value="" style="shape=image;verticalLabelPosition=bottom;labelBackgroundColor=default;verticalAlign=top;aspect=fixed;imageAspect=0;image=data:image/png,iVBORw0KGgoAAAANSUhEUgAAAJQAAABnCAYAAADmOmtjAAAMCklEQVR4Ae2dC3AV1RnHEwYMHVRklFGHGUYpMylYik5bwMGBpigg9oVIi31ggZIZCxahMpJCtbRMqUIFq4M8ZJw2VJBXMASQYIASeQYCCSWUhxAIDzG0hAAhhCT/zncvm3O42bu7Z/ecm53kOzM7udndc+53/vvbc3bP/c53ksCJFdCoQJLGsrgoVgAMFEOgVQEGSqucXBgDxQxoVYCB0ionF8ZAMQNaFWCgtMrJhTFQzIBWBRgorXJyYQwUM6BVAQZKq5xcGAPFDGhVgIHSKicXxkAxA1oVYKC0ysmFhQaoHVsPo3LPfmDvXt5CrsHJ7cUoKbtqe/eEAqiRefVIfq8OqW+eAtLSeAuxBvueTY9cK7pea0vrG0HV5EBdqUGDgWQkAxXuG2rcb7Marteb+0MI1IrPo60TwdTzb2eBjAz1bdAgoG9f9Xx+vqsZ5KnPmIKcUd/AofE/VNas07uXGoDKOxNCoKzujoD6/Z7GBjZqU+12PPEEMHCg3RHeF0eBe3LuweAdg+Mctd9dWC56k/aL61Brc7matMsje8gwgom2PRfsK+K4t74eaN8emDzZ8TQ+eLsCvbf2xsMbH759p8t/0/eK3uSnm2xoAprWp3zbOUF8xw/qXKoT53B+PpCUBGzcGOcE3m2nwKSDk5CUlYTqumq7w7b7vrVS3PwfHgshUJN3COLTt9obaFszeefUqUBKClDtXRg5e0v9vPrc6ghQmaczPUlw9qq4+VvPr8PlG/bZmrTL+9pSQbzdK6i9ydJegqhjR2DAAGknf/SiQFVtFTrkdECX3C6ora91zTL/kLj5B2THv/mbDKgTlYL4dovqcMNPjzd9erS7y852FYRPaKzAtJJpkVZq3ol5jQ/G7HlmnQBqbnEIgZp9QBj4ow3xDYypl/i3uDja1T39tNjHn5QUuFRzCQ9seCCyXa+9HjfvtZtAygLRm1BjEC81WQvVf40wcPFhRaAqKoDOnYEHHwS+/DJe3Xi/BwVWnV0VaaVG7RuFethfh6wT4ubv8ZFzV9IkQNEDXatbQwX0tzz+zdFYktpagFqltm2BAwcaH+c9ygqMKxoXgWp04WhbqEZvEUD9bpc9dNaXNglQmUeEgY+vdibeMjTy98oV4Kmnos9Ny5bddoj/CabA+KLxEahGFIy47SGd8KEhHWuscOcXzt/TJED9OFcA9edCZ+IbzC8tBR59FLjrLmD9+obd/EGfAq8cfCUC1dBdQxug2vGFeHkisNyuVsKBouF6equziP/3f10EOXUKSE8H2rQBHnoIOHzYJQMfDqLA64dfj0BFwwlvHH0DE7dfa7hWv9rihlMTjJTnlonWqcviKqDuVpdHP6GUlwMlJUBeHvDaa0CfPkByMnD//cDs2UBVVRCtOK9HBQouFeC53c8hOSsZrd4/2ADUxydDCNRv8gVQE4e/FX0eop9OYrfWrYEhQ4DMTOC6ylO7R9X4NFcF8i+caYCpzfybnsYKE97ldfqH6O7ydpcBa9cCCxcCM2YAc+dGAcrNBS5fdq0wn2BWARrAtB5Nvr/evXUiaxIKVNFF8YAXz/3BrERcuooC9BOLBdTCkhACNWOfMDCe+4NKhflccwrQWCH9CGwB5XWsMKEtVO9VwsClcdwfzEnEJasoQNfHgomum9eUMKCIcMtAJ/cHr4bzeWYV+NmnAijqWbymhAG1qEQY+KSD+4NXw/k8cwrQWKHsSVvsNlYomZIwoH6wXgD1toP7g2Qbf2wiBTafEdeK3spVUkKAIl8nr+4PKsbzuWYUmLRdAEXjhiopIUBllwoD3dwfVIznc80o0GWJeHnaVBZCoMhf3Hogn7pbzUAzknGp8RQo+Z94efIzVpiQFkp2f9jlZ6pUvNrzfu0K/KVQ3PwjctVvfuNA7b4giPfi/qBdIS5QSYG+WaK7++fREAJFs4Gt7m6s36lSSpLwyX4VoLFCy5PW71ih8Raq53JBvBf3B79icL7gCnzwH3Hzp32sNlxgfbtRoOTJgTRs4GuqlGUp/zWuwLBPBFBvFal3d2SgUaDeOSgMpIFNTuFVgG522ZPWaaqUUy2MAjUoRwBFP71wCq8CG06La/XIMn/dHdXOGFA0OdByf1CeKhVe3ZutZb/eJoDKcJkq5SSCMaCWHxcG9lFwf3Aylo+ZU0D2pKWZLn6TMaDkQGIq7g9+K8L5/CsgBxILOlZoBCh6WvLr/uBfFs7pV4E/FIjehGYJB0lGgJIDiam6PwSpDOf1p4AcSIziGARJRoCSA4lN+CyYgUEqx3ndFYgdK6SXqSDJCFCpH4rR8U9tIsUGMZjz6lXgPSmQ2Pc0jBVqB0oOJObH/UGvXFyamwJyILEFh4L3JtqBmiUFEvPj/uAmAB/Xp0BsIDGvU6WcLNAOlBxIzI/7g5OxfEyvAnIgsW+v9D86LlulFSg5kJhf9wfZOP5sVgE5kNgf9wbv7sharUDJgcS+y1OlzNIQsHTCR/akPXAxYIG3smsFSg4kNsen+4OeanEpbgrIgcR0jhVqAyo2kJhf9wc3Ifi4HgXoB2DLk/YlxalSThZoA0oOJPZ1l0ixTgbxscQoQNfIAoquna6kDSii3DIwiPuDropxOfEVkMcKyanOblWp+Lmdj2gDSpf7g7O5fFSHAnIgMXru1Zm0ACUHEgvq/qCzclyWvQJyIDF6M9eZtAD1J2kdtTEB3R90Vo7LaqyAHEjMxFihFqDkQGJrPESKbVxN3pMoBeRAYt/xOVXKydbAQMmBxGiqVFD3Bydj+VhwBSgUpfXy9FcDY4WBgZIDielwfwguGZcQT4HYQGImxgoDAyUHEtPh/hBPDN4fXAE5kFi3pXp+DI61KhBQsYHEdLg/xBrI/+tTYKIUSOzVnXrf7iwrAwElBxLrxVOlLE1D+1cOJPbZeTNmBgKKoqlYD3g0dMApvAockgKJmRwrDASU7P5Ag5ucwquAHEhs1GZzN79voORAYjrdH8J7SUJs2dWrAC1IOXQo0LMn0KlTdMXTO+8EunYF0tLQd87nDb3JqoBTpZyU8A2UHEis68p1KKwodPoePmZCAVpLcORI4I47oqt50TJwtHzuCy8AU6YAL78MDB+O8sfT0GpebQSolPm1RscKfQMlBxJLWfFMZNG+QdsHYUv5FhPScZmyApWVwKRJ0UUpCaJZs4CiIvmM2z7LgcSGrDPX3dGX+gJKnhxI7g8Xb1wCrQTZIadDBCxaapSTIQWOHwdSUwFaT3DCBIDgcknPSoHEaB6eyeQLKDmQ2E8k94cL1RfQI69HBCpaFJmTZgVoreW7744+I+3Z46nw2EBi1BiYTL6AGrhWDBcsiYkUW3mzEmn5aRGoxu4fa9L2llV2QQGQkgL07w9c9P5Kvf6UuFYUw8B0UgZKDiQWz/2hpq4Gw3YPi0A1sXii6To0//LLyoD77gO6dVNed1kOJEZRVkwnZaDkQGJO7g/1qMfzBc9HoMq/mG+6Hs27/H79okARWIpJ9qSlOFCmkzJQv8gTTaib+8P56+fRNrstUjelorqu2nRdmmf52dnRIYHly5Xrt69cLDqQqLFCJaCowZQDiXlxf8g4lBFppRaVLlIWpMVnqKmJDkw+9pgvKeRAYuO2me/uyEgloP51ThDf3WOk2IqaCrTPaY9eW3v5EqVFZ1qzJto67dzpS4ZvrhBTpT45HUKg5EBiUxQixc48MjPSSlEXyElBgTFjgO7dFTKIU2PHChO16IBSCyW7P2xXYOPY1WMRoDJPZ4oa8yd3Be69F3jxRffzbM6QA4kN35iY1onM8AzUkQrR3am6P9ysv4nkrGSMLhxtU3XeZavAmTPR7m7ePNvDbjvlQGJ/1zxVyum7PQMlBxIblV0JnDyptA1Y8lWMXNlPKY/qdzSr89etA9q1AxYvVtbs2vFS0I/A5KtGiw7Q1KlEJc9A9VsjHvBW/3xaxCWC3CJ4C58GdH0sx0e6bolMnoHqnBkF6ivvXkfVk4MZpBDfTHPS32kAyu+qUn4h9AwUPeQNWHQeH726AEhP5y3EGhx9aRqGzdyHX26uR1XAMNGqYHkGSrVgPr9lKsBAtczrbqzWDJQxaVtmwQxUy7zuxmrNQBmTtmUWzEC1zOturNYMlDFpW2bB/wd8jvHKoWJ1QgAAAABJRU5ErkJggg==;" vertex="1" parent="WIyWlLk6GJQsqaUBKTNV-1">
          <mxGeometry x="112.52000000000001" y="230" width="57.48" height="40" as="geometry" />
        </mxCell>
        <mxCell id="T1UZrN2t6RgM1eJqlzTA-17" value="" style="shape=image;verticalLabelPosition=bottom;labelBackgroundColor=default;verticalAlign=top;aspect=fixed;imageAspect=0;image=data:image/png,iVBORw0KGgoAAAANSUhEUgAAALUAAABiCAYAAAAWaJI+AAAPkElEQVR4Ae1dCbROVRu+pESSIq3SgKRBaVSK+iVKE4VUKyIljZJSSsNC87h+olWaaRDhTxKuBqKEUsaI0FUyXa6b4U7Pv57v2N3znb3PN5x7zne+c87ea911zj3fHt/3Ofvs4XnfnQMdtARCJoGckLVHNyfqEigrgQZ11EEQqvaXoXDFYxrUodJpxBvzz+qXsfW7CzSoI46D0DR/57o3Y4DWoPZbpePHA716Abt3+12TQJe/e8PEfwGtQe2XKhcvBi68EMjJKf974QW/ahPocovy58YBWoM60+osKgJ69y4HshnUvK9fH5g0KdO1Cmx5xQWLkT+3rQa1bxp88UUZzDVrApdeKj+/5BJgxQrfqhqEgkt2rkX+vMskQOueOhPaY8/boIEM3FtuKQfu228DJ54ox+nTBygry0QtA1VG6Z5N2LagoxLQGtReqpI9LXtc6xCjbVtg+nS55H/+AR5/HKhWLT5N5crAiBFy/Ig+KSvege0Lu9oCOv/71npJzxNs3H13PDAJ7MaNgZEjkxe3ZAnQvbuc/qSTgBkzkqcPcYyy0l0oWNRbAvT2hd2xc81wFG2bH2u93lF0EwTDhsk97b77Ao88AhQUpFfS5MlAq1YyuK++Gli3Lr28whC7rAQFS/rGAJ3/Qzvs+HUgdv/9KUr3/C21ToNaEomDB1OnAiecIAOwWzdg0SIHGZqScOjBVRHrMGbAAFOk8N/uyhuFnWtfRfH2BUkbq0GdVEQJIvz+O3DllTLgLrgA+OyzBAnT/GnLFuCBB+RyatQAOMnUIU4CGtRx4kjjn/vuk0HG3rR//zQySTPq/PnAccfJ5Z55JjBnTpqZhTe6BnW6un3tNaB2bRlYffsCRx0FHHlk+uPnVOswcaJR7lVXAeecI9fhhhuAv/5KNbfQxtOgTlW1X30FnHGGDKQuXQD2oAw//QTstx/AyZzbIS8POPBAoFkzoLjYyJ0bOocdJtdp8GC3Sw9UfhrUydS1fj3QqZMMnLPPBsaNk1MPH27E7dzZvR6bLw2/ArVqAQS3ObB+qiXEunWBMWPMMSNzr0GdSNUPPSSDuU4dgD1kovDqq0DVqsZO4o8/JoqZ/Lfnnwe4LMix9NKl9vFnzVJPWs8/v/xLYp86VL9oUKvUyRUF9ozWZTRuW1t7SlV6PiOYjz4a2GcfoGNH4Msv7WLKzwsLjV3EJk2MOrRvD/BZKmH0aKBpU7nupLhyFSUCQYParOTZs4GWLWVAdOgA8Ld0w86dwNChBrjFriK3wvnsvfeATz81wD52LPDGGwDpp7ffDnCpjvHbtQNyc9Mt1Yj/xBMACVPWFzMCFFcNakJg0yaAKwdWAJxyCvD++85AZU5VUmLkc+qpchnWMtmzX3898Msv5hyc3a9eDZA4ZS2DmzlcSQlp0KB+7DFj/GtWfPXqwFNPAQSj24G9N5fdfv0V+OEHYOZMYOFCgADk8KC01O0Sjd6+TRsZ3CRc/fyz++X5nGN0Qc0emCQjM5h5TxL/qlU+q8Wj4kmoUm3ecK6wY4dHhWY+2+iBet48gPRPK5j5LAosONpDDhxorKiYZUCK6yuvZB6BHpQYHVBv364eXx57LPDWWx6INsuz5PKgah5Biuvnn2d55RNXLxqg5krAwQfH986VKhmkfJLzoxxIvGrRIl427MG5K7psWSAlE25Qf/wxcNppssJuvDHxRkYgVVnBSnOZkbwV85CE96S4BsyFQzhBzdUEri1bFcQeKeCf1gpCN3HybduAfv1kuXHd/PXXE6fNol/DBepduwDO5K1gPvxwgFvXOqQmAe6GchfUKkdSXFX2lanlmrFY4QE1+Rj16smKILl+69aMCTRUBZGwpWImcoL5229Z29Tgg5o7Y+edJ4OZLLmKkomyVm0ZrhhJVSoOOTeustCFQ3BBzSUpbidbP5HsWSZMyLDWI1Dchg0GL8Uqb1Jcs8ykLHig5tY1Z+SkY5oFfNBBwMsvRwBdPjfxu+/UXqVIcf3mG58rZxQfLFBzsteoUTyYCWyS5LUZU2YBRZoBN2rMHQvve/b03YVDMEDNZbiLLpIFeNllAHsOHfyTwJAhAAlgVnBzw8unkN2g5gybb75VYPSx8dFHPolMFytJYO1a4KabZD2R4uoGdVcqMPGD7AX1oEEAx8lmQNOo9cknE7dI/+qfBGicrPIqRYprBl04ZB+o33lHbY50880AncfokP0SePNNtafX227LyNwne0DNt1zl7Yge97/+OvsVqWsYLwG6cSDFlcQx89eWFNdnn42P6/J//oOazg7vuiu+4RQCjVajSAl1WcG+Z0cLH9V+AldOSDjzIPgLau5UkZdhfpN5Ty+hAWOGeaCbcGU5ZQrQvLms6yuucN2Fgz+g5huqaiDf6OXLw6VM3Zp4CQwfjqK6Crdt3GtwyYVDZkE9dy5w7bXS27rp9GNx6aM5WFm4Ml4A+r9QSqDXzOvx36v3k3AQcw3hwq5wZkBN3gDZcjT/Nw81Dj00ZhdXXFaM2pNro+8vfUOpRN2ocgls2bMFVf9XFf0W9TMs2VUU19NPr5ALB+9BTd9yDRvGg5nAJhmdpPS9YcCSAag5qSZ2l+qDMoVMwngdkzcGlSZUwm+FJuoqmZYqCyUC3oELB+9ATds36wGYBDPd0NI7qCVM3zgdORNyMGvzLMsv+t8wSWDI8iGoP7W+ukkvvSRvuBEz9AWehgsH90HN4yB69JB7Zno7+uQTdWMALCtYFgP1R3l6+9tWSCH4odv8bmg5s6V9S+gtS7XEu3eoap+w/Bf3QM03iX7i6EPZPG4+4ADguefKS7S5KywpjIH6xZVJPIrapNePgyGB5t80x3XzrkteWXqvImHNjCXe04VyEjtTd0BNkrjqsB1ui3KSmGLgmLr/Yg+Pl0ixHjqadxKo+3ldY5KYahEkrqkOieIqmo0LB3dAzQrS9xwJR9Y3iz6e9+xJ2oSSspJYTz14ebS94CcVVMAjNJzWED0W9EitFTz17NxzZUwlIUi5B2pW848/1F6Q6E+CrmoThFWFq2KgHrVuVIJY+qegS6D1t63RalarxM1YuVLtPYp+AFOgsroLalFVmvW0bi2/YTyKzcb5eO7G3Biov938rchFX0MogZ4/9rRf/aCp3qOPyrghCSoNowNvQC2UYTfWJqF8zRoRK3YduWZkDNTrd62Pe67/CZcEOLysMrEKuOEWF4iVY46RAe3APMxbUItaq96+KlUAmgLtDR3ndkSjaY3Ev/oaUgnM2TIn1nlN2TDFaCFpxar9DD5zaMibGVCz+nbjpMaNseXtYag8sTKGrhoaUlXqZpkl0CS3CbpO+A9Aww/rwgJX0SrociFzoBatspnRTj2jMgpnzxCx9DXEEph7X3vs2jdHBrRLznEyD2qhLLo7UB1seccdaa1ti+z0NQAS+OAD4PjjZTB36+aqGzP/QE0dFBUZZ3lbP0HclUx2VmEAdKiruFcC33+vdIBT1OIcTxxO+gtqofXFi9WnypK5pV2ICSkF77pxI8Avr7XToqsyD10DZweohbpIQSSX1ioEUhDpc1qH4EiA5zVaT2+gXrnD7LGpXnaBWqjMjoJ4//1Afr6Ipa/ZKIHx49Xc6ARcDbebkZ2gZit5bLGKgsjJ5YgRbstB51dRCfBLSq689StLR+1JWHUVLdqaPntBLWpKH9MqCiKJLl98IWLpq18SKCiwP1LDpyPssh/UQll2FMSuXW0piCKpvnokAYL2iCPk3jlNSxW3axccUIuW21FcuXDPI5J18F4CHE6oKKE8ps6BTaHbFQ4eqCkB+odQHSTfoAFAX3w6eCMBkvLtvC1x5SpLQjBBLYRH39Qqiit9WdM3nw7uSIBGHg8/LLu4ICXUBT8d7lSyPJdgg1q049131eZkvXoBq1eLWPrqRAI07uBR19ZVDRc9KjmpVqI04QC1aKGK4rr//sAzzwClpSKWvqYigRkz1F9BmlLNn59KDr7FCReoKUae/WJ3kPyHH/om6MAUTB/gqtMbSAn1yEup27IJH6iFhEgwV83Q6QM7g17tRXUCcR08GDF/dtahhsf+pN2WTXhBLSQ1cqSa4nrPPcB6bToWE9OoUcDJJ8vjZs5JAnjqWfhBLcDdv7+stEMOycrZu6iy59fZs4HLL5flwjMRA/w1iw6oiRCeItWpk6zEs84CSMSJSmDve+edshxICU3BBUG2iylaoBbamDZNTXHt0gVYsEDECueVpzfQL5113MzxdEhCNEEtlEfugvVYOyr7wQeBzZtFrHBcx44FmjWTwcyVIp67E6IQbVALRfbpIyu7Xj33Ka4Ez7hxxjiepB9+GS6+2DhYk9wVTmpzcw0zN1G3il755encWW4fKaEOXRBUtEpep9egFhJesUJNcaVXqcmTRaz0rzx6jUDmpoX5+DX6HaQbLS47Wg9zqlMHuPdeYOnS9MsTKbZuBWhUYR1m1KhRYRcEoohsvWpQWzVDZ/EqL5vduwO0pUwncLNCjF/pT5CmTFxx+PNPORcaIfN4Nk5Y2YMLZ5tt2qjjyzmUP+Gwikf2WQE9YABQVlYeL6R3GtR2iqVJmQCWAAfPrOEwIZlXe27J84wbpmvb1jjcNF0wkXxPC59atQD23KkssU2aBPDLIuorrqSE8pz3iAQN6kSKZu9JH9sCHOLKYQOPKlYF2lAK5iDPtako54Tb1vxy8AWjrxRV4BeEvjNE/cSVB3BOn65KEepnGtSpqJegEUAVgOGVkzxO7ETg+JkrDAQgLXXcCvwyCJM2s0tkGkWQxFW1ajygSQmNsB2nBnU6wON4V3Viwq23Gr4CxcSMy2duB/b4dJpI1iFfMn4pVN6OuJLjsQsCt5vmdn4a1E4k+vTT8T0je+1q1YxnvXs7yTG1NFw7py+N6tXl8rm6YnNcRGqZhyeWBrVTXdKFA/1sm4cjvOcpZKNHO83VPh0nevwiWMvjl4MTRB3+lYAG9b+icHhDFw4tWshga98emOXCmZBcNaGxMVdBrICmFyQdJAloUEsicfiABggqL640e3K6DU0voaqTYEkJTbas6LAZYUimQe22FgcNkntUst/S6VW5QdOhg5wPKaHap2BSjWlQJxWRgwh04aAyKeNyX6KVERot0HjBOszgSzFmjIOKRDOJBrWXeqcLBxUz7pprAJ7oag50NWDlgBDcIaKEmpvr5b0GtZfSFXnThYOK4sp1bfrfVtlSsqdnj69D2hLQoE5bZBVIMHCgPLSwDjVICWUPr4NjCWhQOxadw4Q0pVLxmyNACXUosbSTaVCnLTKXEpCg37Sp0XOTEqqDaxLQoHZNlA4zystzmFAns5OABrWdZPTzwErg/8VF0N6+l0LJAAAAAElFTkSuQmCC;" vertex="1" parent="WIyWlLk6GJQsqaUBKTNV-1">
          <mxGeometry x="6.119999999999997" y="330" width="73.88" height="40" as="geometry" />
        </mxCell>
        <mxCell id="T1UZrN2t6RgM1eJqlzTA-30" style="edgeStyle=orthogonalEdgeStyle;rounded=0;orthogonalLoop=1;jettySize=auto;html=1;entryX=1;entryY=0.5;entryDx=0;entryDy=0;" edge="1" parent="WIyWlLk6GJQsqaUBKTNV-1" source="T1UZrN2t6RgM1eJqlzTA-20" target="T1UZrN2t6RgM1eJqlzTA-25">
          <mxGeometry relative="1" as="geometry">
            <Array as="points">
              <mxPoint x="270" y="500" />
            </Array>
          </mxGeometry>
        </mxCell>
        <mxCell id="T1UZrN2t6RgM1eJqlzTA-33" value="四条边长度都相等" style="edgeLabel;html=1;align=center;verticalAlign=middle;resizable=0;points=[];" vertex="1" connectable="0" parent="T1UZrN2t6RgM1eJqlzTA-30">
          <mxGeometry x="-0.5024" y="1" relative="1" as="geometry">
            <mxPoint as="offset" />
          </mxGeometry>
        </mxCell>
        <mxCell id="T1UZrN2t6RgM1eJqlzTA-20" value="矩形/长方形" style="rounded=1;whiteSpace=wrap;html=1;fontSize=12;glass=0;strokeWidth=1;shadow=0;" vertex="1" parent="WIyWlLk6GJQsqaUBKTNV-1">
          <mxGeometry x="230" y="380" width="70" height="40" as="geometry" />
        </mxCell>
        <mxCell id="T1UZrN2t6RgM1eJqlzTA-24" value="" style="shape=image;verticalLabelPosition=bottom;labelBackgroundColor=default;verticalAlign=top;aspect=fixed;imageAspect=0;image=data:image/png,iVBORw0KGgoAAAANSUhEUgAAAI4AAABnCAYAAADWtnpCAAAD10lEQVR4Ae3dsUsbYRzG8WTvbIb+CQ5uWTpl7JCxQ5EuGQJuoYvtINkCCkUtbS09EOlUKCWTacGC0kFasFWhJUMqBYVEWq21WbLkfuVOjI55nyvcXfIVXrghT+583k9+J2a4jPFDA0IDGSFDhAYMOCCQGgCOVBsh4GBAagA4Um2EgIMBqQHgSLURAg4GpAaAI9VGCDgYkBoAjlQbIeBgQGogMpxHe76Vlvfs6/wLs1qNleAOPiy8tHvPmvb8my9huR6KBGf72LfJV33LrvTtdvWjWaHASnAHk/M/wr26Ve9b6080PJHg7J/44YUEcPK1JmgSjCb4UOeWTgf7dda7Pj/cj/8fnLVzs62todf7uTm7MzFhv+v1oTMu7z/Kr/2yuBh2d7C66tRdzuslEM4bt9HneZ5lMhlrt9vu3Mc8sb6+Hna3s7Pj1ERu7eLPiuAOkZyJAxynTYzyYuAwcSQ/wAEOcPLcqiQESoiJw8RR3BhwgAMcblWSASnExGHiAIeJIxmQQkwcJg5wsg8+hf8GD75GcFmdTkcqb5xDjUbDqePL/cgudJL3XdXNx0dWrVadV7fbHWcD0u/earWcew725sbTv8mD4/o3jtQYoUgNjMSXnJEaICw1ABypNkLAwYDUAHCk2ggBBwNSA8CRaiMEHAxIDQBHqo0QcDAgNQAcqTZCwMGA1ABwpNoIAQcDUgPAkWojBBwMSA0AR6qNEHAwIDUAHKk2QsDBgNQAcKTaCAEHA1IDwJFqIwQcDEgNAEeqjRBwMCA1ABypNkLAwYDUAHCk2ggBBwNSA8CRaiMEHAxIDQBHqo0QcDAgNQAcqTZCwMGA1ABwpNoIAQcDUgPAkWojBBwMSA0AR6qNEHAwIDUAHKk2QsDBgNQAcKTaCAEHA1IDiYTD86qkvZRCY/28qmKxGD6siwedudu5hFMul52eWzUSz6vyPC+E02633Zsb8wTP5OSZnNJHADjAAY7roxW5VUlmwhATh4kj6QEOcIDDrUoyIIWYOEwc4DBxJANSiInDxAEOE0cyIIVGa+IsH5rNzg69jqan7e3UlPUqlaEzLu8/yq/9WSqF3Z3PzDh1l3tybtmVfrjOepLZQSgzOBIO9k/8wYXka02zQoGV4A5yS6eD/YoZjlmxcYGncv81aBKMJvhQTz/cCOHc3fDtsOsLo+IqEmniBG+zfexbY/PAbHeXlYIO3m1+t8+/rgCoR5HhqCcml+4GgJPu/Yvt6oETW/XpPjFw0r1/sV09cGKrPt0nBk669y+2qwdObNWn+8TASff+xXb1wImt+nSfGDjp3r/Yrv4fePXFhNA2Ks8AAAAASUVORK5CYII=;" vertex="1" parent="WIyWlLk6GJQsqaUBKTNV-1">
          <mxGeometry x="330" y="380" width="68.94" height="50" as="geometry" />
        </mxCell>
        <mxCell id="T1UZrN2t6RgM1eJqlzTA-25" value="正方形" style="rounded=1;whiteSpace=wrap;html=1;fontSize=12;glass=0;strokeWidth=1;shadow=0;" vertex="1" parent="WIyWlLk6GJQsqaUBKTNV-1">
          <mxGeometry x="140" y="480" width="70" height="40" as="geometry" />
        </mxCell>
        <mxCell id="T1UZrN2t6RgM1eJqlzTA-32" value="&lt;span style=&quot;font-size: 11px; background-color: rgb(255, 255, 255);&quot;&gt;四个角都为90°&lt;/span&gt;" style="text;html=1;align=center;verticalAlign=middle;resizable=0;points=[];autosize=1;strokeColor=none;fillColor=none;" vertex="1" parent="WIyWlLk6GJQsqaUBKTNV-1">
          <mxGeometry x="180" y="318" width="100" height="30" as="geometry" />
        </mxCell>
      </root>
    </mxGraphModel>
  </diagram>
</mxfile>
